<svg xmlns="http://www.w3.org/2000/svg" xmlns:xlink="http://www.w3.org/1999/xlink" width="250" zoomAndPan="magnify" viewBox="0 0 187.5 187.499992" height="250" preserveAspectRatio="xMidYMid meet" version="1.0"><defs><clipPath id="2421d12bac"><path d="M 74.3125 56.25 L 113.3125 56.25 L 113.3125 131.25 L 74.3125 131.25 Z M 74.3125 56.25 " clip-rule="nonzero"/></clipPath></defs><g clip-path="url(#2421d12bac)"><path fill="#000000" d="M 94.113281 56.351562 C 93.757812 56.535156 92.015625 58.320312 91.617188 58.914062 C 90.886719 59.988281 90.746094 61.421875 91.234375 62.730469 L 91.304688 62.910156 L 91.207031 63.113281 C 90.972656 63.617188 90.800781 64.289062 90.722656 64.984375 C 90.683594 65.335938 90.667969 65.429688 90.664062 65.328125 C 90.65625 65.140625 90.359375 64.160156 90.164062 63.679688 C 89.675781 62.480469 89.058594 61.667969 87.941406 60.761719 C 87.289062 60.230469 86.988281 59.917969 86.699219 59.472656 C 86.539062 59.226562 86.375 59.171875 86.296875 59.335938 C 86.210938 59.527344 86.558594 61.242188 86.835938 61.984375 C 87.300781 63.234375 87.835938 63.902344 89.179688 64.933594 C 89.777344 65.386719 90.175781 65.71875 90.480469 66.015625 L 90.671875 66.199219 L 90.691406 66.496094 C 90.773438 67.855469 91.257812 69.519531 92.011719 71.039062 C 92.113281 71.246094 92.195312 71.417969 92.1875 71.417969 C 92.183594 71.417969 92.101562 71.367188 92.007812 71.304688 C 91.761719 71.148438 91.316406 70.929688 91.046875 70.839844 L 90.820312 70.765625 L 90.3125 70.257812 C 88.757812 68.691406 87.789062 68.277344 85.296875 68.117188 C 84.523438 68.066406 84.589844 68.414062 85.515625 69.226562 C 86.679688 70.246094 87.59375 70.660156 89.023438 70.820312 C 89.269531 70.84375 89.621094 70.882812 89.808594 70.902344 C 90.582031 70.988281 91.035156 71.125 91.820312 71.503906 C 92.101562 71.640625 92.347656 71.753906 92.359375 71.753906 C 92.375 71.753906 92.421875 71.820312 92.464844 71.902344 C 92.953125 72.800781 93.617188 73.773438 94.914062 75.484375 C 97.519531 78.929688 98.289062 80.441406 99.003906 83.515625 C 99.191406 84.320312 99.230469 84.445312 99.289062 84.464844 C 99.578125 84.554688 99.089844 82.238281 98.476562 80.613281 C 97.855469 78.953125 97.148438 77.78125 95.277344 75.304688 C 93.21875 72.582031 92.4375 71.292969 91.761719 69.496094 L 91.648438 69.195312 L 91.808594 68.753906 C 92.175781 67.726562 92.234375 67.648438 93.546875 66.40625 C 94.476562 65.523438 94.789062 64.957031 94.914062 63.929688 C 95.042969 62.839844 94.886719 62.652344 94.246094 63.132812 C 92.265625 64.613281 91.777344 65.535156 91.539062 68.238281 C 91.519531 68.488281 91.496094 68.695312 91.496094 68.699219 C 91.484375 68.710938 91.308594 68.058594 91.242188 67.738281 C 90.933594 66.316406 90.953125 65.230469 91.3125 63.792969 L 91.433594 63.320312 L 91.550781 63.199219 C 91.613281 63.132812 91.714844 63.019531 91.769531 62.945312 C 91.824219 62.875 92.09375 62.554688 92.363281 62.238281 C 93.667969 60.703125 94.152344 59.855469 94.402344 58.660156 C 94.539062 58.019531 94.601562 56.640625 94.5 56.4375 C 94.433594 56.292969 94.285156 56.261719 94.113281 56.351562 M 94.15625 57.808594 C 94.03125 59.335938 93.59375 60.21875 92.070312 62.011719 C 91.886719 62.226562 91.679688 62.472656 91.617188 62.554688 C 91.550781 62.640625 91.496094 62.703125 91.488281 62.699219 C 91.484375 62.695312 91.449219 62.5 91.410156 62.265625 C 91.0625 60.246094 91.433594 59.402344 93.550781 57.386719 L 94.167969 56.800781 L 94.171875 57.140625 C 94.175781 57.332031 94.167969 57.632812 94.15625 57.808594 M 87.148438 60.511719 C 87.234375 60.589844 87.527344 60.839844 87.796875 61.066406 C 89.28125 62.296875 89.960938 63.449219 90.4375 65.535156 C 90.445312 65.582031 90.398438 65.542969 90.230469 65.386719 C 90.109375 65.269531 89.742188 64.964844 89.421875 64.707031 C 87.75 63.378906 87.15625 62.441406 86.773438 60.523438 C 86.726562 60.289062 86.683594 60.078125 86.675781 60.046875 C 86.667969 60.011719 86.71875 60.054688 86.828125 60.179688 C 86.921875 60.28125 87.066406 60.429688 87.148438 60.511719 M 94.597656 63.503906 C 94.5 64.761719 94.21875 65.285156 93.070312 66.328125 C 92.453125 66.890625 92.207031 67.148438 92.03125 67.417969 L 91.886719 67.636719 L 91.902344 67.507812 C 92.082031 65.945312 92.65625 64.902344 93.914062 63.867188 C 94.160156 63.664062 94.585938 63.328125 94.601562 63.328125 C 94.605469 63.328125 94.605469 63.410156 94.597656 63.503906 M 85.882812 68.503906 C 87.640625 68.65625 88.613281 69.097656 89.832031 70.296875 L 90.144531 70.605469 L 90.046875 70.59375 C 89.992188 70.585938 89.703125 70.550781 89.40625 70.519531 C 88.304688 70.394531 87.878906 70.289062 87.292969 70 C 86.675781 69.695312 85.863281 69.089844 85.332031 68.542969 L 85.238281 68.445312 L 85.34375 68.457031 C 85.402344 68.460938 85.644531 68.484375 85.882812 68.503906 M 85.609375 77.488281 C 85.582031 77.503906 85.402344 77.644531 85.214844 77.808594 C 85.023438 77.972656 84.703125 78.242188 84.5 78.414062 C 82.320312 80.222656 81.820312 80.925781 81.535156 82.5625 C 81.398438 83.351562 81.28125 83.632812 80.828125 84.234375 C 80.414062 84.78125 80.558594 84.894531 81.179688 84.519531 C 81.355469 84.410156 81.726562 84.210938 82.007812 84.074219 C 83.785156 83.183594 84.390625 82.546875 84.738281 81.199219 C 84.804688 80.9375 84.820312 80.847656 84.945312 80.046875 C 85.101562 79.023438 85.265625 78.589844 85.75 77.945312 C 85.878906 77.769531 85.933594 77.570312 85.867188 77.5 C 85.839844 77.472656 85.667969 77.464844 85.609375 77.488281 M 90.636719 78.046875 C 89.65625 78.808594 87.644531 81.140625 86.1875 83.210938 C 85.222656 84.578125 84.121094 86.394531 84.140625 86.578125 C 84.164062 86.769531 84.269531 86.664062 84.613281 86.121094 C 84.84375 85.761719 84.875 85.722656 84.925781 85.734375 C 85.277344 85.820312 88.558594 87.539062 91.734375 89.292969 L 92.890625 89.933594 L 92.617188 90.28125 C 92.152344 90.878906 91.960938 91.199219 92.03125 91.269531 C 92.082031 91.320312 92.191406 91.214844 92.449219 90.882812 C 93.734375 89.222656 95.230469 87.710938 96.839844 86.460938 C 97.386719 86.039062 98.402344 85.339844 98.472656 85.339844 C 98.492188 85.339844 98.519531 85.324219 98.53125 85.304688 C 98.539062 85.289062 98.707031 85.171875 98.898438 85.046875 C 99.273438 84.800781 99.296875 84.78125 99.320312 84.6875 C 99.359375 84.523438 99.054688 84.621094 98.566406 84.925781 C 98.457031 84.996094 98.363281 85.050781 98.355469 85.050781 C 98.347656 85.050781 98.132812 84.882812 97.878906 84.683594 C 94.683594 82.136719 91.566406 79.960938 90.007812 79.179688 L 89.917969 79.132812 L 90.257812 78.75 C 90.449219 78.539062 90.675781 78.261719 90.765625 78.136719 C 91.011719 77.789062 90.992188 77.777344 90.636719 78.046875 M 84.90625 78.65625 C 84.761719 78.992188 84.679688 79.359375 84.558594 80.171875 C 84.257812 82.195312 83.785156 82.8125 81.746094 83.832031 C 81.441406 83.980469 81.414062 83.992188 81.457031 83.929688 C 81.640625 83.675781 81.75 83.339844 81.886719 82.664062 C 82.183594 81.148438 82.640625 80.496094 84.492188 78.921875 C 84.996094 78.492188 84.96875 78.511719 84.90625 78.65625 M 90.707031 79.859375 C 92.265625 80.792969 93.65625 81.769531 96.285156 83.773438 C 97.195312 84.46875 98.101562 85.148438 98.144531 85.164062 C 98.164062 85.171875 97.988281 85.304688 97.753906 85.457031 C 96.160156 86.53125 94.5625 87.964844 93.289062 89.460938 L 93.015625 89.777344 L 92.84375 89.660156 C 91.484375 88.75 86.636719 86.152344 85.253906 85.589844 L 85.007812 85.492188 L 85.578125 84.640625 C 86.765625 82.867188 87.734375 81.609375 89.195312 79.941406 L 89.75 79.3125 L 89.960938 79.425781 C 90.074219 79.488281 90.410156 79.683594 90.707031 79.859375 M 105.664062 81.082031 C 105.40625 81.25 105.066406 81.421875 104.542969 81.640625 C 103.769531 81.96875 103.628906 82.03125 103.371094 82.160156 C 102.117188 82.789062 101.589844 83.332031 100.84375 84.773438 C 100.160156 86.085938 100.035156 86.222656 98.691406 87.101562 C 97.390625 87.953125 96.792969 88.4375 95.753906 89.476562 C 95.425781 89.808594 95.054688 90.160156 94.9375 90.261719 C 93.957031 91.085938 92.9375 92.496094 93.070312 92.839844 C 93.113281 92.949219 93.128906 92.933594 93.433594 92.472656 C 94.886719 90.265625 97.019531 88.945312 100.042969 88.386719 C 101.289062 88.15625 101.5625 88.089844 101.820312 87.960938 C 101.964844 87.886719 102.023438 87.894531 102.714844 88.027344 C 103.714844 88.226562 104.433594 88.203125 105.128906 87.960938 C 105.246094 87.917969 105.328125 87.898438 105.328125 87.914062 C 105.328125 87.929688 105.34375 87.972656 105.367188 88.015625 C 105.425781 88.128906 105.683594 88.804688 105.675781 88.820312 C 105.667969 88.828125 105.554688 88.902344 105.417969 88.980469 C 104.617188 89.445312 103.753906 89.878906 102.402344 90.5 C 101.992188 90.6875 101.375 90.96875 101.027344 91.128906 C 98.238281 92.410156 96.386719 93.488281 94.851562 94.722656 C 92.332031 96.75 90.753906 98.992188 90.578125 100.804688 C 90.5625 100.945312 90.554688 100.964844 90.535156 100.929688 C 90.078125 100.171875 89.261719 99.257812 88.398438 98.542969 C 88.097656 98.296875 88.023438 98.21875 87.894531 98.027344 C 86.554688 96.074219 85.050781 94.695312 82.199219 92.808594 C 79.9375 91.3125 79.320312 90.839844 78.160156 89.746094 C 77.753906 89.363281 77.613281 89.25 77.535156 89.25 C 77.304688 89.25 77.96875 90.019531 78.820312 90.746094 C 79.714844 91.507812 80.144531 91.8125 82.601562 93.417969 C 84.664062 94.769531 85.757812 95.753906 87.363281 97.707031 C 87.382812 97.734375 87.328125 97.703125 87.242188 97.640625 C 85.3125 96.246094 82.664062 94.882812 79.875 93.851562 C 78.085938 93.191406 77.65625 93.019531 76.972656 92.695312 C 76.453125 92.445312 76.261719 92.460938 76.261719 92.757812 C 76.261719 92.984375 77.210938 93.671875 78.347656 94.265625 C 79.238281 94.734375 79.230469 94.722656 79.234375 95.429688 C 79.238281 96.304688 79.253906 96.320312 80.644531 96.738281 C 81.972656 97.140625 84.496094 97.976562 85.171875 98.238281 C 86.25 98.65625 87.503906 99.320312 88.332031 99.914062 C 88.539062 100.058594 88.535156 100.0625 88.296875 99.972656 C 87.9375 99.84375 87.246094 99.652344 86.414062 99.449219 C 83.292969 98.699219 82.371094 98.417969 81.152344 97.839844 C 80.171875 97.371094 78.703125 96.449219 78.070312 95.898438 C 77.875 95.730469 77.730469 95.832031 77.683594 96.175781 C 77.585938 96.890625 77.292969 97.050781 76.054688 97.050781 L 75.511719 97.050781 L 75.441406 97.121094 C 75.339844 97.21875 75.34375 97.363281 75.449219 97.507812 C 75.609375 97.730469 76.589844 98.667969 76.984375 98.972656 L 77.066406 99.039062 L 76.996094 99.066406 C 76.820312 99.132812 76.710938 99.125 76.4375 99.023438 C 76.105469 98.898438 75.921875 98.863281 75.335938 98.804688 C 75.070312 98.777344 74.800781 98.746094 74.730469 98.738281 C 74.351562 98.691406 74.320312 99.011719 74.6875 99.199219 C 74.957031 99.335938 75.121094 99.449219 75.902344 100.039062 C 77.515625 101.257812 78.660156 101.785156 80.984375 102.375 C 81.347656 102.46875 81.351562 102.472656 81.210938 102.472656 C 79.78125 102.5 78.09375 102.566406 78.027344 102.601562 C 77.929688 102.652344 77.898438 102.785156 77.957031 102.890625 C 78.109375 103.152344 78.292969 106.6875 78.191406 107.417969 C 78.167969 107.605469 78.140625 107.667969 77.878906 108.199219 C 77.410156 109.132812 77.035156 110.34375 76.941406 111.234375 C 76.820312 112.332031 76.933594 113.058594 77.457031 114.617188 C 77.605469 115.058594 77.722656 115.425781 77.71875 115.433594 C 77.710938 115.4375 77.183594 115.457031 76.546875 115.472656 C 75.90625 115.492188 75.347656 115.511719 75.304688 115.519531 C 75.183594 115.539062 75.117188 115.703125 75.179688 115.820312 C 75.199219 115.851562 75.195312 116.0625 75.175781 116.519531 C 75.136719 117.472656 75.179688 121.042969 75.238281 121.261719 C 75.335938 121.640625 75.511719 121.839844 76.125 122.25 L 76.523438 122.515625 L 76.414062 122.628906 C 75.328125 123.738281 74.96875 127.390625 75.742188 129.503906 C 75.90625 129.945312 76.050781 130.21875 76.417969 130.773438 C 76.511719 130.914062 76.605469 131.0625 76.628906 131.101562 C 76.652344 131.144531 76.695312 131.191406 76.726562 131.203125 C 76.765625 131.222656 79.570312 131.125 86.953125 130.855469 C 92.550781 130.652344 100.5625 130.359375 104.761719 130.207031 C 113.316406 129.894531 112.730469 129.921875 112.808594 129.84375 C 112.886719 129.765625 112.886719 129.628906 112.800781 129.535156 L 112.734375 129.46875 L 112.457031 129.480469 C 111.941406 129.507812 109.878906 129.578125 109.867188 129.566406 C 109.863281 129.5625 109.832031 129.277344 109.796875 128.933594 C 109.761719 128.589844 109.726562 128.273438 109.71875 128.234375 L 109.703125 128.15625 L 109.785156 128.179688 C 109.996094 128.238281 110.238281 128.210938 110.335938 128.113281 C 110.476562 127.972656 110.480469 127.925781 110.464844 127.058594 L 110.449219 126.289062 L 110.546875 126.273438 C 111.011719 126.199219 111.097656 125.300781 110.886719 122.757812 C 110.871094 122.570312 110.867188 122.410156 110.875 122.398438 C 110.886719 122.390625 111.273438 122.375 111.742188 122.367188 C 112.632812 122.355469 112.65625 122.351562 112.726562 122.238281 C 112.785156 122.152344 112.777344 122.078125 112.695312 121.992188 L 112.621094 121.914062 L 111.980469 121.929688 C 111.355469 121.945312 111.339844 121.945312 111.355469 121.898438 C 111.4375 121.6875 111.558594 121.058594 111.621094 120.496094 C 111.851562 118.496094 111.632812 116.832031 110.949219 115.332031 L 110.796875 115.003906 L 111.09375 115.003906 C 112.234375 115.003906 112.40625 114.96875 112.40625 114.75 C 112.40625 114.523438 112.476562 114.527344 110.613281 114.582031 C 109.894531 114.601562 109.453125 114.605469 109.441406 114.589844 C 109.421875 114.558594 109.398438 113.964844 109.371094 112.867188 C 109.351562 111.925781 109.308594 111.140625 109.171875 109.25 L 109.09375 108.1875 L 109.238281 108.175781 C 109.320312 108.167969 110.082031 108.152344 110.9375 108.136719 C 112.933594 108.105469 113.023438 108.101562 113.097656 108.027344 C 113.179688 107.945312 113.175781 107.808594 113.085938 107.722656 L 113.019531 107.660156 L 110.191406 107.71875 C 108.636719 107.75 107.222656 107.777344 107.054688 107.777344 L 106.75 107.777344 L 106.800781 107.652344 C 107.125 106.847656 107.261719 105.972656 107.265625 104.671875 C 107.265625 103.242188 107.125 102.675781 106.628906 102.09375 C 106.503906 101.945312 106.5 101.9375 106.542969 101.90625 C 107.054688 101.539062 108.589844 100.609375 108.824219 100.519531 C 109.207031 100.378906 109.019531 99.972656 108.632812 100.109375 C 108.292969 100.226562 106.65625 100.214844 105.71875 100.085938 L 105.617188 100.070312 L 105.589844 99.933594 C 105.492188 99.445312 105.28125 98.746094 105.046875 98.144531 C 104.976562 97.960938 104.921875 97.804688 104.925781 97.800781 C 104.953125 97.773438 106.460938 97.863281 106.664062 97.902344 C 106.894531 97.949219 106.953125 97.683594 106.785156 97.363281 C 106.398438 96.632812 106.355469 96.515625 106.421875 96.296875 C 106.519531 95.964844 107.050781 95.554688 107.523438 95.457031 C 107.710938 95.414062 107.738281 95.230469 107.628906 94.71875 C 107.582031 94.5 107.484375 93.96875 107.410156 93.53125 C 107.082031 91.570312 106.816406 90.511719 106.304688 89.171875 L 106.246094 89.011719 L 106.640625 88.746094 C 107.089844 88.449219 107.558594 88.117188 107.925781 87.832031 C 108.066406 87.726562 108.296875 87.558594 108.4375 87.460938 C 108.785156 87.21875 108.835938 87.125 108.707031 86.972656 C 108.582031 86.820312 108.402344 86.902344 107.757812 87.398438 C 107.285156 87.765625 106.402344 88.386719 106.105469 88.5625 C 106.089844 88.570312 106.027344 88.4375 105.929688 88.1875 C 105.84375 87.976562 105.753906 87.78125 105.730469 87.753906 C 105.703125 87.730469 105.6875 87.707031 105.691406 87.707031 C 105.695312 87.703125 105.785156 87.648438 105.894531 87.582031 C 106.121094 87.445312 106.554688 87.117188 106.855469 86.859375 C 106.976562 86.753906 107.285156 86.488281 107.542969 86.261719 C 107.804688 86.039062 108.171875 85.730469 108.359375 85.578125 C 108.875 85.164062 108.945312 85.074219 108.898438 84.886719 C 108.859375 84.726562 108.792969 84.710938 108.203125 84.726562 C 105.183594 84.804688 104.179688 85.183594 102.484375 86.875 C 101.632812 87.726562 101.648438 87.71875 100.535156 87.933594 C 99.027344 88.222656 98.414062 88.378906 97.691406 88.652344 C 97.273438 88.808594 96.792969 89.019531 96.621094 89.121094 C 96.109375 89.417969 97.707031 88.171875 98.453125 87.6875 C 98.6875 87.539062 99.085938 87.277344 99.339844 87.113281 L 99.800781 86.808594 L 100.148438 86.730469 C 101.773438 86.367188 102.761719 85.875 103.675781 84.984375 C 104.265625 84.410156 104.59375 83.914062 105.265625 82.582031 C 105.570312 81.980469 105.804688 81.574219 105.949219 81.402344 C 106.117188 81.203125 106.140625 81.105469 106.039062 81.003906 C 105.953125 80.917969 105.890625 80.929688 105.664062 81.082031 M 105.035156 82.210938 C 104.300781 83.632812 103.996094 84.109375 103.488281 84.636719 C 102.769531 85.382812 101.753906 85.941406 100.421875 86.332031 L 100.292969 86.367188 L 100.425781 86.207031 C 100.625 85.957031 100.757812 85.738281 101.058594 85.164062 C 101.976562 83.394531 102.464844 82.957031 104.507812 82.070312 C 104.925781 81.890625 105.269531 81.742188 105.273438 81.742188 C 105.277344 81.738281 105.167969 81.953125 105.035156 82.210938 M 108.300781 85.117188 C 108.289062 85.128906 108.152344 85.246094 108 85.378906 C 106.167969 86.976562 105.601562 87.382812 104.90625 87.617188 C 104.25 87.832031 103.75 87.84375 102.773438 87.65625 C 102.609375 87.621094 102.449219 87.59375 102.417969 87.589844 C 102.367188 87.582031 102.375 87.566406 102.527344 87.402344 C 102.617188 87.300781 102.777344 87.125 102.878906 87.011719 C 103.949219 85.832031 105.246094 85.273438 107.191406 85.148438 C 107.417969 85.132812 107.644531 85.117188 107.699219 85.113281 C 107.917969 85.097656 108.320312 85.097656 108.300781 85.117188 M 77.140625 86.410156 C 77.144531 86.433594 77.164062 86.503906 77.179688 86.5625 C 77.285156 86.976562 77.917969 87.855469 78.621094 88.558594 C 79.355469 89.292969 79.878906 89.664062 81.488281 90.59375 C 83.421875 91.710938 84.164062 92.246094 85.335938 93.359375 C 85.492188 93.507812 85.578125 93.570312 85.617188 93.570312 C 85.792969 93.570312 85.597656 93.296875 85.039062 92.753906 C 84.132812 91.875 83.414062 91.367188 81.378906 90.175781 C 79.460938 89.046875 78.785156 88.457031 77.707031 86.96875 C 77.53125 86.726562 77.347656 86.492188 77.300781 86.449219 C 77.203125 86.363281 77.117188 86.34375 77.140625 86.410156 M 76.601562 87.4375 C 76.601562 87.523438 76.839844 87.835938 77.136719 88.140625 C 77.9375 88.957031 78.882812 89.691406 81.308594 91.375 C 86.417969 94.917969 88.546875 96.917969 90.058594 99.574219 C 90.140625 99.722656 90.210938 99.765625 90.269531 99.707031 C 90.320312 99.65625 90.289062 99.570312 90.082031 99.160156 C 88.863281 96.757812 86.539062 94.574219 81.476562 91.074219 C 79.269531 89.546875 78.523438 88.980469 77.105469 87.738281 C 76.875 87.535156 76.601562 87.371094 76.601562 87.4375 M 83.800781 87.832031 C 83.800781 88.078125 84.558594 88.828125 85.472656 89.492188 C 87.925781 91.261719 88.90625 92.460938 90.039062 95.058594 C 90.1875 95.398438 90.261719 95.527344 90.304688 95.5 C 90.472656 95.394531 89.695312 93.609375 89.011719 92.539062 C 88.222656 91.292969 87.503906 90.570312 85.796875 89.296875 C 85.242188 88.882812 84.972656 88.667969 84.488281 88.257812 C 84.125 87.953125 83.800781 87.75 83.800781 87.832031 M 86.328125 88.140625 C 86.328125 88.285156 86.472656 88.445312 87.160156 89.054688 C 88.914062 90.617188 89.621094 91.605469 90.410156 93.632812 C 90.589844 94.101562 90.742188 93.988281 90.578125 93.503906 C 89.863281 91.378906 88.792969 89.898438 86.910156 88.441406 C 86.605469 88.203125 86.328125 88.0625 86.328125 88.140625 M 81.191406 88.523438 C 81.164062 88.566406 81.398438 88.867188 81.597656 89.046875 C 82.113281 89.511719 82.425781 89.734375 83.605469 90.472656 C 86.554688 92.324219 87.742188 93.558594 89.578125 96.683594 C 89.75 96.976562 89.820312 97.050781 89.902344 97.019531 C 90 96.980469 89.90625 96.726562 89.554688 96.097656 C 88.128906 93.554688 86.714844 92.066406 84.160156 90.429688 C 82.859375 89.59375 82.519531 89.367188 81.835938 88.867188 C 81.464844 88.597656 81.226562 88.46875 81.191406 88.523438 M 99.945312 88.949219 C 97.945312 89.453125 96.699219 90.019531 95.527344 90.964844 C 94.789062 91.5625 93.984375 92.425781 93.984375 92.625 C 93.984375 92.726562 94.027344 92.691406 94.582031 92.132812 C 95.976562 90.742188 97.101562 90.058594 99.007812 89.464844 C 100.289062 89.066406 100.476562 89.003906 100.589844 88.941406 C 100.886719 88.777344 100.613281 88.777344 99.945312 88.949219 M 102.328125 89.140625 C 101.789062 89.328125 98.785156 90.648438 97.828125 91.121094 C 94.835938 92.597656 92.394531 94.734375 91.367188 96.777344 C 91.09375 97.316406 91.160156 97.613281 91.4375 97.09375 C 92.101562 95.84375 93.527344 94.300781 95.105469 93.121094 C 96.359375 92.1875 97.484375 91.566406 99.753906 90.570312 C 101.402344 89.84375 102.695312 89.183594 102.699219 89.0625 C 102.703125 89.019531 102.644531 89.03125 102.328125 89.140625 M 105.929688 89.460938 C 106.175781 90.125 106.460938 91.046875 106.585938 91.59375 L 106.644531 91.835938 L 106.351562 91.851562 C 105.542969 91.890625 104.492188 92.207031 103.417969 92.734375 C 102.574219 93.148438 102.078125 93.480469 102.078125 93.632812 C 102.078125 93.777344 102.183594 93.761719 102.40625 93.582031 C 103.257812 92.902344 105.332031 92.113281 106.398438 92.066406 L 106.691406 92.050781 L 106.722656 92.230469 C 106.738281 92.328125 106.757812 92.417969 106.765625 92.433594 C 106.769531 92.449219 106.683594 92.464844 106.503906 92.476562 C 105.660156 92.527344 104.445312 92.882812 103.484375 93.359375 C 102.980469 93.609375 102.890625 93.679688 102.933594 93.796875 C 102.964844 93.875 103.035156 93.863281 103.238281 93.738281 C 104.125 93.207031 105.828125 92.683594 106.664062 92.683594 L 106.8125 92.683594 L 106.855469 92.929688 C 106.941406 93.4375 107.113281 94.335938 107.183594 94.636719 C 107.265625 94.996094 107.277344 94.972656 106.980469 94.996094 C 105 95.136719 100.59375 96.347656 97.800781 97.519531 C 97.089844 97.816406 96.078125 98.304688 95.503906 98.628906 C 95.363281 98.707031 95.183594 98.804688 95.105469 98.847656 L 94.960938 98.925781 L 95.082031 98.8125 C 95.460938 98.460938 95.871094 98.125 96.476562 97.675781 C 98.019531 96.53125 99.125 95.917969 100.347656 95.527344 C 100.78125 95.386719 100.8125 95.367188 100.785156 95.261719 C 100.730469 95.042969 99.160156 95.65625 98.007812 96.34375 C 96.824219 97.050781 95.523438 98.039062 94.695312 98.855469 L 94.265625 99.285156 L 93.902344 99.472656 C 93.703125 99.574219 93.441406 99.71875 93.316406 99.792969 L 93.09375 99.929688 L 93.160156 99.828125 C 94.382812 97.878906 96.910156 95.542969 98.804688 94.613281 C 98.992188 94.519531 99.039062 94.464844 99.003906 94.375 C 98.921875 94.164062 97.609375 94.953125 96.382812 95.953125 C 94.730469 97.300781 93.601562 98.574219 92.761719 100.042969 C 92.691406 100.164062 92.621094 100.265625 92.605469 100.273438 C 92.554688 100.292969 92.175781 100.605469 91.992188 100.777344 C 91.898438 100.871094 91.820312 100.9375 91.820312 100.929688 C 91.820312 100.796875 92.453125 99.621094 92.761719 99.183594 C 93.773438 97.75 96.445312 95.355469 98.257812 94.265625 C 99.023438 93.804688 99.632812 93.496094 101.519531 92.617188 C 101.695312 92.535156 101.695312 92.535156 101.6875 92.445312 C 101.675781 92.300781 101.601562 92.3125 101.113281 92.546875 C 100.882812 92.65625 100.511719 92.832031 100.292969 92.933594 C 98.160156 93.9375 97.0625 94.648438 95.347656 96.148438 C 93.078125 98.132812 92.113281 99.378906 91.539062 101.070312 C 91.460938 101.308594 91.347656 101.5 91.210938 101.644531 C 91.101562 101.757812 91.347656 100.957031 91.574219 100.464844 C 93.046875 97.238281 96.859375 94.09375 101.582031 92.222656 C 102.214844 91.972656 102.222656 91.96875 102.222656 91.878906 C 102.222656 91.726562 102.1875 91.734375 101.546875 91.988281 C 96.246094 94.089844 92.078125 97.726562 91.097656 101.101562 C 91.003906 101.425781 91 101.425781 91 101.109375 C 91 98.746094 93.960938 95.421875 98.175781 93.050781 C 98.863281 92.664062 100.308594 91.949219 101.558594 91.375 C 103.558594 90.460938 104.144531 90.179688 104.820312 89.824219 C 105.160156 89.644531 105.59375 89.402344 105.738281 89.308594 C 105.851562 89.234375 105.84375 89.226562 105.929688 89.460938 M 92.65625 93.277344 C 92.292969 93.640625 91.214844 95.355469 91.214844 95.578125 C 91.214844 95.730469 91.292969 95.652344 91.53125 95.25 C 91.628906 95.085938 91.929688 94.625 92.195312 94.230469 C 92.460938 93.832031 92.707031 93.453125 92.742188 93.382812 C 92.851562 93.171875 92.8125 93.125 92.65625 93.277344 M 79.042969 94.027344 C 80.054688 94.402344 80.324219 94.503906 80.597656 94.609375 C 84.074219 95.972656 87.261719 97.914062 89.066406 99.769531 C 89.527344 100.246094 89.585938 100.332031 89.265625 100.074219 C 88.035156 99.078125 86.636719 98.296875 84.996094 97.6875 C 84.453125 97.488281 81.597656 96.554688 80.8125 96.320312 C 79.574219 95.949219 79.652344 96.023438 79.664062 95.234375 C 79.671875 94.550781 79.574219 94.417969 78.71875 93.953125 C 78.566406 93.871094 78.464844 93.8125 78.492188 93.820312 C 78.515625 93.832031 78.765625 93.921875 79.042969 94.027344 M 106.3125 95.675781 C 105.886719 96.109375 105.84375 96.5 106.15625 97.132812 C 106.226562 97.277344 106.28125 97.402344 106.277344 97.40625 C 106.273438 97.410156 106.019531 97.398438 105.710938 97.382812 C 103.480469 97.273438 99.71875 97.648438 97.515625 98.203125 C 97.269531 98.265625 97.238281 98.253906 97.429688 98.167969 C 100.03125 97.019531 103.617188 95.957031 106.410156 95.507812 C 106.445312 95.5 106.476562 95.496094 106.484375 95.492188 C 106.492188 95.492188 106.414062 95.574219 106.3125 95.675781 M 78.402344 96.707031 C 80.285156 98.117188 82.25 98.949219 85.378906 99.664062 C 88.703125 100.429688 89.640625 100.859375 90.574219 102.0625 L 90.691406 102.210938 L 90.519531 102.210938 C 90.371094 102.210938 90.351562 102.203125 90.335938 102.160156 C 90.292969 102.023438 89.785156 101.5625 89.398438 101.304688 C 88.679688 100.832031 88.164062 100.667969 85.425781 100.039062 C 83.46875 99.589844 82.578125 99.277344 81.402344 98.628906 C 81.050781 98.4375 80.957031 98.425781 80.957031 98.574219 C 80.957031 98.652344 80.96875 98.660156 81.167969 98.773438 C 82.3125 99.414062 83.359375 99.792969 85.113281 100.191406 C 88.007812 100.855469 88.535156 101.019531 89.265625 101.503906 C 89.636719 101.746094 90.125 102.175781 90.082031 102.21875 C 90.078125 102.226562 89.730469 102.238281 89.308594 102.246094 L 88.546875 102.265625 L 88.347656 102.113281 C 87.679688 101.613281 86.628906 101.011719 86.425781 101.011719 C 86.332031 101.011719 86.328125 101.011719 86.328125 101.09375 C 86.328125 101.175781 86.332031 101.175781 86.636719 101.332031 C 87.199219 101.621094 88.230469 102.265625 88.140625 102.277344 C 88.117188 102.277344 87.753906 102.292969 87.332031 102.304688 L 86.5625 102.328125 L 86.351562 102.246094 C 85.757812 102.019531 85.128906 101.84375 83.980469 101.585938 C 80.945312 100.902344 79.542969 100.316406 77.71875 98.972656 C 77.21875 98.601562 76.371094 97.871094 76.074219 97.546875 L 76.019531 97.488281 L 76.460938 97.476562 C 77.464844 97.449219 77.871094 97.210938 78.082031 96.527344 C 78.097656 96.480469 78.101562 96.484375 78.402344 96.707031 M 78.917969 97.6875 C 78.554688 97.839844 80.566406 99.246094 82.320312 100.070312 C 83.609375 100.675781 84.175781 100.871094 85.140625 101.046875 C 85.652344 101.136719 85.726562 101.125 85.6875 100.976562 C 85.671875 100.914062 85.625 100.898438 85.148438 100.820312 C 84.332031 100.679688 83.839844 100.511719 82.675781 99.976562 C 81.347656 99.367188 79.910156 98.480469 79.234375 97.855469 C 79.070312 97.707031 78.984375 97.660156 78.917969 97.6875 M 104.457031 97.863281 C 104.570312 97.949219 105.210938 99.953125 105.148438 100.023438 C 105.144531 100.027344 104.914062 100.007812 104.636719 99.980469 C 101.535156 99.679688 99.449219 99.75 97.226562 100.230469 C 95.511719 100.601562 94.007812 101.257812 93.148438 102 L 92.996094 102.132812 L 92.75 102.148438 C 92.378906 102.167969 91.386719 102.191406 91.386719 102.179688 C 91.386719 102.164062 92.027344 101.609375 92.335938 101.355469 C 93.160156 100.683594 93.703125 100.273438 94.324219 99.867188 C 94.847656 99.519531 94.875 99.503906 95.261719 99.355469 C 97.378906 98.554688 100.316406 98.003906 103.386719 97.84375 C 104.070312 97.808594 104.394531 97.8125 104.457031 97.863281 M 77.71875 98.019531 C 77.695312 98.101562 77.71875 98.128906 77.960938 98.308594 C 78.078125 98.398438 78.3125 98.585938 78.476562 98.726562 C 79.125 99.277344 79.433594 99.507812 80.007812 99.851562 C 80.605469 100.210938 81.941406 100.84375 82.109375 100.84375 C 82.257812 100.84375 82.230469 100.683594 82.074219 100.628906 C 81.171875 100.304688 79.6875 99.425781 78.855469 98.71875 C 77.941406 97.945312 77.765625 97.839844 77.71875 98.019531 M 75.808594 99.308594 C 76.21875 99.390625 76.296875 99.433594 76.605469 99.75 C 77.199219 100.363281 77.9375 100.832031 79.039062 101.285156 C 79.390625 101.433594 79.390625 101.453125 79.042969 101.320312 C 78.351562 101.0625 77.535156 100.640625 76.960938 100.246094 C 76.550781 99.964844 75.742188 99.371094 75.667969 99.296875 C 75.648438 99.277344 75.664062 99.277344 75.808594 99.308594 M 77.730469 99.535156 C 79.40625 100.734375 80.902344 101.34375 83.742188 101.992188 C 85.53125 102.398438 85.46875 102.367188 84.484375 102.378906 L 83.933594 102.382812 L 83.367188 102.191406 C 82.84375 102.011719 82.550781 101.925781 81.199219 101.550781 C 79.320312 101.023438 77.699219 100.257812 77.074219 99.601562 L 77.007812 99.527344 L 77.109375 99.503906 C 77.167969 99.488281 77.273438 99.449219 77.347656 99.417969 C 77.417969 99.386719 77.488281 99.367188 77.503906 99.375 C 77.515625 99.382812 77.621094 99.453125 77.730469 99.535156 M 102.679688 100.269531 C 103.121094 100.292969 103.742188 100.339844 104.316406 100.394531 L 104.617188 100.421875 L 104.4375 100.464844 C 103.058594 100.789062 102.578125 100.828125 100.355469 100.808594 C 98.074219 100.785156 97.066406 100.847656 95.972656 101.082031 C 95.585938 101.167969 95.640625 101.136719 96.175781 100.972656 C 98.0625 100.386719 100.3125 100.144531 102.679688 100.269531 M 79.488281 101.46875 C 79.515625 101.484375 79.507812 101.488281 79.464844 101.476562 C 79.433594 101.46875 79.390625 101.449219 79.371094 101.4375 C 79.34375 101.421875 79.351562 101.421875 79.394531 101.433594 C 79.425781 101.441406 79.46875 101.457031 79.488281 101.46875 M 106.171875 102.265625 C 106.371094 102.40625 106.585938 102.789062 106.6875 103.175781 C 106.988281 104.308594 106.820312 106.605469 106.363281 107.625 L 106.285156 107.796875 L 105.558594 107.8125 C 105.160156 107.820312 104.542969 107.832031 104.183594 107.84375 C 103.554688 107.855469 103.539062 107.855469 103.554688 107.8125 C 103.5625 107.785156 103.605469 107.652344 103.65625 107.515625 C 104.144531 106.117188 103.996094 104.136719 103.28125 102.542969 L 103.167969 102.289062 L 104.386719 102.257812 C 105.292969 102.234375 105.621094 102.234375 105.660156 102.253906 C 105.726562 102.292969 105.855469 102.289062 105.929688 102.246094 C 106.015625 102.195312 106.089844 102.203125 106.171875 102.265625 M 102.847656 102.59375 C 103.578125 104.277344 103.703125 106.34375 103.148438 107.589844 C 103.097656 107.699219 103.054688 107.808594 103.046875 107.832031 C 103.035156 107.875 101.957031 107.902344 101.957031 107.859375 C 101.957031 107.851562 101.976562 107.761719 102.003906 107.660156 C 102.402344 106.109375 102.191406 103.394531 101.601562 102.445312 C 101.570312 102.394531 101.546875 102.351562 101.546875 102.34375 C 101.546875 102.332031 102.15625 102.316406 102.53125 102.316406 L 102.730469 102.316406 L 102.847656 102.59375 M 100.992188 102.378906 C 101.175781 102.476562 101.445312 103.097656 101.582031 103.734375 C 101.835938 104.910156 101.824219 106.773438 101.554688 107.761719 L 101.515625 107.898438 L 101.34375 107.898438 C 101.25 107.898438 98.078125 107.960938 94.296875 108.039062 C 90.515625 108.117188 87.421875 108.179688 87.417969 108.175781 C 87.414062 108.171875 87.4375 108.066406 87.46875 107.941406 C 87.828125 106.550781 87.566406 104.640625 86.777344 102.898438 C 86.734375 102.808594 86.722656 102.761719 86.742188 102.761719 C 87.640625 102.710938 100.949219 102.355469 100.992188 102.378906 M 86.574219 102.996094 C 87.351562 104.625 87.625 106.707031 87.226562 107.976562 L 87.164062 108.1875 L 86.960938 108.1875 C 86.851562 108.1875 86.761719 108.179688 86.761719 108.167969 C 86.761719 108.15625 86.785156 108.074219 86.808594 107.980469 C 87.160156 106.765625 86.890625 104.378906 86.257812 103.109375 C 86.070312 102.734375 86.070312 102.761719 86.292969 102.761719 L 86.464844 102.761719 L 86.574219 102.996094 M 85.890625 102.898438 C 86.644531 104.070312 86.988281 106.761719 86.554688 108.066406 C 86.507812 108.203125 86.320312 108.300781 86.363281 108.167969 C 86.503906 107.707031 86.566406 106.464844 86.488281 105.714844 C 86.371094 104.636719 86.035156 103.585938 85.601562 102.949219 C 85.484375 102.777344 85.480469 102.785156 85.664062 102.785156 L 85.816406 102.785156 L 85.890625 102.898438 M 84.625 102.949219 C 85.34375 103.875 85.679688 104.847656 85.679688 105.992188 C 85.679688 106.355469 85.695312 106.433594 85.773438 106.433594 C 85.894531 106.433594 85.894531 106.429688 85.894531 106.042969 C 85.894531 104.820312 85.605469 103.902344 84.929688 102.972656 L 84.8125 102.808594 L 85.011719 102.808594 C 85.238281 102.808594 85.238281 102.808594 85.40625 103.0625 C 86.03125 104.011719 86.386719 105.546875 86.304688 106.976562 C 86.273438 107.515625 86.175781 108.128906 86.117188 108.191406 C 86.105469 108.199219 85.523438 108.21875 84.824219 108.230469 C 84.121094 108.246094 83.300781 108.265625 83 108.273438 L 82.453125 108.289062 L 82.523438 108.0625 C 82.976562 106.550781 83.039062 104.503906 82.667969 103.128906 C 82.632812 102.992188 82.601562 102.878906 82.605469 102.878906 C 82.605469 102.878906 83.019531 102.863281 83.523438 102.847656 C 84.027344 102.832031 84.457031 102.816406 84.480469 102.8125 C 84.503906 102.8125 84.5625 102.867188 84.625 102.949219 M 82.15625 102.96875 C 82.171875 103.019531 82.183594 103.0625 82.179688 103.066406 C 82.164062 103.082031 81.066406 103.144531 80.816406 103.148438 C 80.472656 103.152344 80.441406 103.164062 80.441406 103.265625 L 80.441406 103.351562 L 80.875 103.34375 C 81.113281 103.34375 81.511719 103.324219 81.765625 103.304688 C 82.265625 103.261719 82.242188 103.257812 82.277344 103.410156 C 82.3125 103.546875 82.339844 103.535156 81.953125 103.554688 C 81.425781 103.585938 80.214844 103.675781 80.027344 103.695312 L 79.855469 103.710938 L 79.839844 103.574219 C 79.832031 103.5 79.800781 103.332031 79.769531 103.203125 C 79.734375 103.074219 79.710938 102.964844 79.714844 102.960938 C 79.71875 102.957031 81.410156 102.898438 81.996094 102.886719 L 82.128906 102.882812 L 82.15625 102.96875 M 79.292969 103.164062 C 79.515625 103.988281 79.53125 104.984375 79.34375 106.265625 C 79.210938 107.160156 78.949219 108.285156 78.847656 108.398438 C 78.761719 108.492188 78.742188 108.519531 78.742188 108.554688 C 78.742188 108.570312 78.714844 108.613281 78.679688 108.644531 C 78.507812 108.804688 78.261719 109.246094 78.105469 109.6875 C 77.523438 111.289062 77.804688 113.792969 78.730469 115.207031 L 78.859375 115.40625 L 78.496094 115.421875 C 77.953125 115.445312 78 115.464844 77.894531 115.183594 C 76.914062 112.605469 76.878906 111.539062 77.695312 109.171875 C 77.742188 109.03125 77.90625 108.667969 78.058594 108.367188 C 78.414062 107.652344 78.410156 107.671875 78.421875 106.902344 C 78.445312 105.691406 78.363281 104.148438 78.222656 103.117188 L 78.207031 103.003906 L 78.335938 102.996094 C 78.40625 102.992188 78.640625 102.984375 78.855469 102.984375 L 79.242188 102.976562 L 79.292969 103.164062 M 82.378906 103.921875 C 82.394531 104.027344 82.410156 104.132812 82.410156 104.152344 C 82.414062 104.183594 82.324219 104.195312 81.894531 104.230469 C 81.265625 104.277344 81.273438 104.277344 81.273438 104.382812 C 81.273438 104.484375 81.28125 104.484375 81.964844 104.425781 C 82.21875 104.40625 82.433594 104.390625 82.4375 104.394531 C 82.441406 104.402344 82.453125 104.488281 82.460938 104.589844 L 82.476562 104.773438 L 82.265625 104.796875 C 82.148438 104.8125 81.761719 104.851562 81.402344 104.886719 C 81.046875 104.921875 80.5625 104.96875 80.332031 104.992188 C 79.832031 105.042969 79.898438 105.070312 79.914062 104.820312 L 79.929688 104.613281 L 80.246094 104.566406 C 80.417969 104.539062 80.6875 104.503906 80.839844 104.488281 C 81.242188 104.453125 81.273438 104.4375 81.234375 104.320312 C 81.207031 104.234375 80.847656 104.25 80.199219 104.367188 C 80.054688 104.394531 79.933594 104.410156 79.925781 104.40625 C 79.910156 104.390625 79.886719 103.894531 79.902344 103.90625 C 79.921875 103.917969 80.480469 103.878906 81.042969 103.828125 C 81.269531 103.808594 81.640625 103.777344 81.875 103.761719 C 82.105469 103.742188 82.308594 103.726562 82.320312 103.726562 C 82.339844 103.722656 82.359375 103.800781 82.378906 103.921875 M 82.476562 105.253906 L 82.476562 105.539062 L 82.292969 105.554688 C 82.191406 105.5625 81.980469 105.570312 81.828125 105.570312 C 81.449219 105.570312 81.390625 105.59375 81.429688 105.71875 C 81.449219 105.785156 81.511719 105.789062 81.992188 105.765625 C 82.238281 105.753906 82.441406 105.75 82.449219 105.753906 C 82.453125 105.757812 82.449219 105.867188 82.441406 105.996094 L 82.421875 106.234375 L 82.203125 106.25 C 81.695312 106.289062 79.863281 106.261719 79.816406 106.214844 C 79.808594 106.210938 79.820312 106.050781 79.839844 105.859375 C 79.859375 105.667969 79.882812 105.453125 79.890625 105.386719 C 79.90625 105.234375 79.789062 105.261719 80.90625 105.148438 C 81.375 105.101562 81.90625 105.042969 82.085938 105.019531 C 82.265625 104.996094 82.429688 104.976562 82.445312 104.972656 C 82.46875 104.972656 82.476562 105.042969 82.476562 105.253906 M 81.175781 106.464844 C 81.683594 106.464844 82.167969 106.457031 82.25 106.449219 L 82.394531 106.429688 L 82.375 106.582031 C 82.363281 106.664062 82.332031 106.890625 82.300781 107.078125 L 82.25 107.421875 L 81.839844 107.40625 C 81.613281 107.398438 81.28125 107.378906 81.101562 107.367188 C 80.925781 107.355469 80.691406 107.347656 80.585938 107.347656 C 80.425781 107.347656 80.382812 107.335938 80.351562 107.300781 C 80.320312 107.265625 80.261719 107.253906 79.980469 107.242188 C 79.796875 107.230469 79.644531 107.21875 79.640625 107.214844 C 79.632812 107.210938 79.722656 106.703125 79.769531 106.484375 C 79.78125 106.429688 79.78125 106.429688 80.015625 106.445312 C 80.144531 106.453125 80.664062 106.460938 81.175781 106.464844 M 80.476562 107.542969 C 80.523438 107.550781 80.929688 107.570312 81.382812 107.589844 C 82.308594 107.621094 82.210938 107.59375 82.15625 107.8125 L 82.132812 107.90625 L 80.808594 107.890625 C 80.078125 107.878906 79.476562 107.871094 79.472656 107.863281 C 79.46875 107.859375 79.492188 107.761719 79.523438 107.644531 L 79.578125 107.429688 L 79.96875 107.4375 C 80.285156 107.445312 80.355469 107.441406 80.359375 107.414062 C 80.359375 107.398438 80.367188 107.414062 80.378906 107.453125 C 80.390625 107.511719 80.410156 107.527344 80.476562 107.542969 M 81.601562 108.101562 L 82.089844 108.089844 L 82.0625 108.167969 C 82.046875 108.210938 82.027344 108.257812 82.015625 108.269531 C 82 108.285156 79.359375 108.359375 79.328125 108.34375 C 79.328125 108.34375 79.339844 108.28125 79.359375 108.210938 L 79.398438 108.078125 L 80.257812 108.097656 C 80.730469 108.109375 81.332031 108.109375 81.601562 108.101562 M 108.707031 108.480469 C 108.714844 108.640625 108.730469 108.921875 108.738281 109.101562 L 108.753906 109.425781 L 108.574219 109.445312 C 108.476562 109.453125 107.964844 109.496094 107.433594 109.542969 C 106.324219 109.632812 106.320312 109.636719 106.375 109.777344 C 106.402344 109.84375 107.273438 109.792969 108.527344 109.648438 C 108.792969 109.617188 108.761719 109.582031 108.777344 109.917969 L 108.792969 110.199219 L 108.714844 110.210938 C 108.648438 110.222656 108.109375 110.273438 107.636719 110.3125 C 107.550781 110.316406 107.191406 110.347656 106.832031 110.382812 C 106.472656 110.414062 105.882812 110.460938 105.519531 110.488281 C 104.65625 110.550781 104.699219 110.542969 104.699219 110.648438 C 104.699219 110.714844 104.710938 110.730469 104.761719 110.742188 C 104.855469 110.769531 107.992188 110.507812 108.667969 110.421875 L 108.816406 110.402344 L 108.824219 110.585938 C 108.828125 110.683594 108.832031 110.769531 108.828125 110.773438 C 108.828125 110.773438 108.5625 110.816406 108.238281 110.859375 C 107.765625 110.925781 106.558594 111.105469 106.117188 111.175781 C 106.015625 111.191406 105.964844 111.253906 105.988281 111.332031 C 106.011719 111.398438 106.15625 111.394531 106.808594 111.292969 C 107.113281 111.246094 107.691406 111.15625 108.097656 111.09375 L 108.832031 110.980469 L 108.847656 111.039062 C 108.855469 111.074219 108.863281 111.15625 108.863281 111.222656 L 108.867188 111.347656 L 108.703125 111.363281 C 108.613281 111.371094 108.308594 111.398438 108.023438 111.425781 C 106.773438 111.542969 104.578125 111.671875 102.816406 111.734375 C 102.304688 111.75 102.269531 111.757812 102.269531 111.851562 C 102.269531 111.976562 102.339844 111.980469 104.582031 111.867188 C 106.488281 111.777344 107.191406 111.722656 108.40625 111.589844 C 108.660156 111.5625 108.871094 111.542969 108.878906 111.550781 C 108.882812 111.554688 108.894531 111.699219 108.902344 111.875 L 108.921875 112.195312 L 108.777344 112.195312 C 108.335938 112.195312 103.582031 112.507812 103.492188 112.542969 C 103.460938 112.554688 103.449219 112.585938 103.449219 112.640625 L 103.449219 112.722656 L 103.628906 112.722656 C 103.730469 112.722656 104.273438 112.691406 104.839844 112.648438 C 105.40625 112.609375 106.28125 112.550781 106.785156 112.519531 C 107.289062 112.484375 107.96875 112.441406 108.296875 112.417969 C 109.003906 112.371094 108.9375 112.339844 108.9375 112.738281 L 108.9375 113.03125 L 108.835938 113.042969 C 108.550781 113.082031 107.011719 113.179688 106.164062 113.214844 C 105.90625 113.226562 105.796875 113.242188 105.773438 113.265625 C 105.746094 113.292969 105.738281 113.289062 105.722656 113.246094 C 105.707031 113.199219 105.695312 113.195312 105.546875 113.210938 C 105.460938 113.214844 104.9375 113.261719 104.386719 113.308594 C 102.90625 113.433594 100.703125 113.59375 100.6875 113.578125 C 100.679688 113.566406 100.464844 112.96875 100.449219 112.910156 L 100.433594 112.851562 L 100.890625 112.835938 C 101.136719 112.828125 101.679688 112.796875 102.089844 112.769531 C 102.5 112.742188 102.953125 112.714844 103.101562 112.703125 L 103.363281 112.6875 L 103.371094 112.609375 C 103.382812 112.480469 103.515625 112.484375 101.75 112.578125 C 101.273438 112.601562 100.769531 112.628906 100.628906 112.632812 L 100.371094 112.640625 L 100.347656 112.554688 C 100.292969 112.378906 100.222656 112.042969 100.234375 112.03125 C 100.242188 112.023438 100.367188 112.015625 100.515625 112.007812 C 101.867188 111.96875 102.003906 111.953125 102.003906 111.839844 L 102.003906 111.753906 L 101.589844 111.769531 C 101.359375 111.777344 100.949219 111.792969 100.675781 111.800781 L 100.183594 111.816406 L 100.152344 111.574219 C 100.136719 111.4375 100.125 111.265625 100.125 111.1875 L 100.125 111.050781 L 101.25 111.046875 C 101.871094 111.042969 102.699219 111.035156 103.09375 111.027344 L 103.808594 111.011719 L 103.808594 110.929688 C 103.808594 110.8125 103.851562 110.816406 102.027344 110.832031 C 101.117188 110.839844 100.316406 110.839844 100.246094 110.832031 L 100.117188 110.820312 L 100.132812 110.585938 C 100.15625 110.25 100.144531 110.265625 100.363281 110.28125 C 100.753906 110.3125 104.113281 110.167969 104.195312 110.117188 C 104.234375 110.09375 104.222656 109.96875 104.183594 109.953125 C 104.164062 109.945312 103.960938 109.949219 103.730469 109.960938 C 102.855469 110.011719 100.199219 110.097656 100.199219 110.078125 C 100.199219 110.046875 100.324219 109.613281 100.367188 109.5 L 100.417969 109.363281 L 100.699219 109.363281 C 102.425781 109.363281 106.695312 109.042969 107.308594 108.867188 C 107.339844 108.855469 107.351562 108.835938 107.34375 108.777344 C 107.335938 108.683594 107.324219 108.683594 106.566406 108.769531 C 104.996094 108.949219 102.898438 109.09375 101.140625 109.136719 L 100.507812 109.152344 L 100.566406 109.035156 C 100.640625 108.890625 100.890625 108.519531 100.984375 108.410156 L 101.054688 108.335938 L 104.554688 108.265625 C 106.484375 108.226562 108.203125 108.191406 108.375 108.1875 L 108.691406 108.1875 L 108.707031 108.480469 M 100.433594 108.394531 C 100.292969 108.558594 100.03125 109.089844 99.90625 109.457031 C 99.414062 110.9375 99.738281 112.972656 100.734375 114.640625 C 100.796875 114.742188 100.839844 114.824219 100.835938 114.828125 C 100.828125 114.835938 97.554688 114.929688 97.269531 114.929688 L 97.121094 114.929688 L 97.046875 114.777344 C 96.484375 113.589844 96.265625 111.371094 96.554688 109.796875 C 96.644531 109.289062 96.859375 108.695312 97.03125 108.484375 L 97.082031 108.421875 L 98.429688 108.390625 C 100.488281 108.34375 100.476562 108.34375 100.433594 108.394531 M 96.429688 108.648438 C 95.917969 109.746094 95.828125 112.09375 96.238281 113.71875 C 96.351562 114.164062 96.585938 114.820312 96.667969 114.925781 C 96.6875 114.949219 96.65625 114.953125 96.523438 114.949219 L 96.359375 114.941406 L 96.292969 114.820312 C 95.625 113.609375 95.347656 111.957031 95.574219 110.597656 C 95.734375 109.664062 96.234375 108.425781 96.453125 108.425781 L 96.535156 108.425781 L 96.429688 108.648438 M 95.710938 108.707031 C 94.789062 110.550781 94.824219 112.820312 95.804688 114.761719 L 95.90625 114.964844 L 90.0625 115.117188 C 86.851562 115.199219 84.125 115.273438 84.003906 115.28125 L 83.789062 115.292969 L 83.695312 115.140625 C 82.488281 113.132812 82.289062 110.347656 83.253906 108.914062 L 83.402344 108.691406 L 83.777344 108.6875 C 83.980469 108.6875 86.601562 108.636719 89.601562 108.570312 C 92.601562 108.507812 95.234375 108.453125 95.449219 108.453125 L 95.839844 108.449219 L 95.710938 108.707031 M 82.765625 108.839844 C 81.847656 110.40625 82.03125 112.976562 83.203125 115.109375 C 83.253906 115.199219 83.292969 115.273438 83.292969 115.277344 C 83.292969 115.292969 82.894531 115.3125 82.523438 115.316406 L 82.105469 115.320312 L 82 115.167969 C 80.824219 113.433594 80.632812 110.8125 81.542969 108.984375 L 81.664062 108.738281 L 81.871094 108.730469 C 81.984375 108.726562 82.25 108.722656 82.457031 108.71875 L 82.835938 108.714844 L 82.765625 108.839844 M 81.152344 108.746094 C 81.152344 108.75 81.101562 108.859375 81.042969 108.984375 C 80.214844 110.726562 80.371094 113.183594 81.429688 115.019531 L 81.605469 115.324219 L 81.378906 115.339844 C 81.253906 115.347656 80.78125 115.363281 80.324219 115.375 L 79.492188 115.390625 L 79.378906 115.300781 C 78.890625 114.902344 78.390625 113.527344 78.261719 112.222656 C 78.144531 111.042969 78.4375 109.636719 78.945312 108.960938 C 79.082031 108.773438 79.003906 108.789062 80.03125 108.765625 C 80.507812 108.753906 80.957031 108.742188 81.023438 108.742188 C 81.09375 108.738281 81.152344 108.742188 81.152344 108.746094 M 108.945312 113.519531 L 108.957031 113.796875 L 108.75 113.8125 C 108.378906 113.839844 101.226562 114.234375 101.097656 114.234375 L 100.976562 114.234375 L 100.878906 114.015625 C 100.808594 113.871094 100.789062 113.796875 100.808594 113.789062 C 100.824219 113.785156 100.976562 113.777344 101.148438 113.765625 C 101.894531 113.734375 104.839844 113.492188 105.402344 113.417969 C 105.5 113.40625 105.597656 113.394531 105.621094 113.394531 C 105.640625 113.394531 105.675781 113.378906 105.695312 113.359375 C 105.730469 113.324219 105.734375 113.328125 105.746094 113.367188 C 105.78125 113.472656 106.601562 113.441406 108.734375 113.253906 C 108.839844 113.242188 108.929688 113.238281 108.929688 113.238281 C 108.929688 113.238281 108.9375 113.363281 108.945312 113.519531 M 108.972656 114.164062 C 108.980469 114.246094 108.988281 114.378906 108.988281 114.464844 L 108.988281 114.613281 L 108.742188 114.628906 C 108.605469 114.636719 106.972656 114.679688 105.109375 114.726562 C 103.25 114.773438 101.644531 114.8125 101.539062 114.816406 L 101.351562 114.828125 L 101.269531 114.710938 C 101.226562 114.652344 101.171875 114.566406 101.152344 114.523438 L 101.113281 114.449219 L 101.203125 114.449219 C 101.253906 114.449219 102.972656 114.351562 105.027344 114.234375 C 107.078125 114.117188 108.804688 114.023438 108.855469 114.019531 L 108.957031 114.019531 L 108.972656 114.164062 M 109.070312 115.453125 C 109.976562 117.5625 110.261719 119.441406 109.925781 121.121094 C 109.871094 121.382812 109.707031 121.902344 109.664062 121.945312 C 109.644531 121.964844 107.84375 122.015625 107.816406 122 C 107.816406 122 107.855469 121.890625 107.90625 121.757812 C 108.570312 120.003906 108.546875 118.480469 107.820312 116.167969 C 107.691406 115.761719 107.519531 115.148438 107.519531 115.109375 C 107.519531 115.097656 107.902344 115.085938 108.472656 115.078125 L 108.910156 115.074219 L 109.070312 115.453125 M 107.011719 115.148438 C 107.011719 115.164062 107.03125 115.195312 107.050781 115.21875 C 107.070312 115.242188 107.121094 115.394531 107.167969 115.558594 C 107.210938 115.71875 107.320312 116.085938 107.40625 116.371094 C 107.988281 118.222656 108.078125 119.316406 107.769531 120.714844 C 107.671875 121.144531 107.421875 121.949219 107.371094 121.996094 C 107.367188 122 106.996094 122.011719 106.550781 122.023438 L 105.738281 122.039062 L 105.78125 121.910156 C 106.335938 120.304688 106.304688 118.03125 105.699219 115.507812 C 105.652344 115.320312 105.617188 115.160156 105.617188 115.15625 C 105.617188 115.144531 106.011719 115.136719 106.609375 115.128906 C 106.90625 115.125 107.011719 115.128906 107.011719 115.148438 M 105.152344 115.226562 C 105.21875 115.371094 105.414062 116.273438 105.554688 117.089844 C 105.796875 118.476562 105.796875 119.886719 105.554688 121.097656 C 105.488281 121.433594 105.335938 121.984375 105.300781 122.019531 C 105.28125 122.042969 86.691406 122.378906 86.363281 122.363281 L 86.238281 122.359375 L 86.355469 122.105469 C 87.109375 120.511719 87.101562 117.898438 86.34375 115.75 C 86.316406 115.675781 86.3125 115.648438 86.335938 115.652344 C 86.351562 115.652344 87.910156 115.613281 89.804688 115.5625 C 92.777344 115.484375 93.246094 115.476562 93.265625 115.507812 C 93.347656 115.640625 93.503906 116.253906 93.5625 116.695312 C 93.742188 117.96875 93.621094 119.082031 93.183594 120.269531 C 93.082031 120.546875 93.015625 120.859375 93.0625 120.859375 C 93.160156 120.859375 93.429688 120.417969 93.601562 119.980469 C 94.039062 118.847656 94.023438 116.789062 93.5625 115.65625 L 93.484375 115.457031 L 94.097656 115.457031 L 94.207031 115.714844 C 94.832031 117.191406 94.941406 118.382812 94.625 120.199219 C 94.449219 121.203125 94.667969 121.035156 94.921875 119.964844 C 95.246094 118.628906 95.027344 116.828125 94.398438 115.582031 L 94.320312 115.433594 L 94.738281 115.433594 C 94.964844 115.433594 95.175781 115.425781 95.207031 115.417969 C 95.253906 115.40625 95.269531 115.425781 95.347656 115.59375 C 95.902344 116.792969 96.035156 117.890625 95.800781 119.273438 C 95.753906 119.5625 95.726562 120.042969 95.761719 120.042969 C 95.8125 120.042969 95.933594 119.785156 96.003906 119.527344 C 96.363281 118.246094 96.238281 116.894531 95.65625 115.722656 C 95.574219 115.558594 95.507812 115.421875 95.511719 115.417969 C 95.519531 115.410156 104.355469 115.175781 104.75 115.171875 C 105.125 115.171875 105.125 115.171875 105.152344 115.226562 M 85.988281 116.027344 C 86.671875 118.476562 86.640625 120.476562 85.894531 122.023438 L 85.734375 122.363281 L 85.582031 122.378906 C 85.5 122.386719 85.21875 122.394531 84.957031 122.394531 L 84.480469 122.394531 L 84.5625 122.230469 C 85.214844 120.925781 85.1875 117.488281 84.507812 115.742188 C 84.492188 115.695312 84.554688 115.691406 85.5 115.679688 L 85.890625 115.675781 L 85.988281 116.027344 M 84.085938 115.765625 C 84.125 115.839844 84.300781 116.484375 84.363281 116.773438 C 84.785156 118.777344 84.613281 121.449219 84.007812 122.292969 L 83.914062 122.417969 L 83.609375 122.417969 C 83.234375 122.417969 79.375 122.484375 78.691406 122.5 L 78.195312 122.515625 L 78.359375 122.15625 C 79.058594 120.660156 79.085938 118.746094 78.441406 116.707031 C 78.332031 116.359375 78.207031 115.886719 78.222656 115.875 C 78.230469 115.863281 83.171875 115.730469 83.671875 115.726562 C 84.023438 115.722656 84.066406 115.726562 84.085938 115.765625 M 77.765625 115.945312 C 77.773438 115.972656 77.800781 116.089844 77.828125 116.203125 C 77.851562 116.3125 77.917969 116.542969 77.96875 116.707031 C 78.660156 118.875 78.625 120.652344 77.859375 122.242188 L 77.730469 122.515625 L 77.277344 122.515625 L 77.066406 122.355469 C 76.949219 122.269531 76.644531 122.058594 76.390625 121.886719 C 75.753906 121.457031 75.6875 121.375 75.636719 120.902344 C 75.613281 120.671875 75.59375 115.972656 75.617188 115.949219 C 75.632812 115.933594 76.628906 115.898438 77.316406 115.894531 C 77.753906 115.890625 77.753906 115.890625 77.765625 115.945312 M 110.464844 122.628906 C 110.476562 122.757812 110.488281 122.9375 110.496094 123.035156 L 110.507812 123.203125 L 110.34375 123.21875 C 109.933594 123.257812 107.617188 123.359375 106.867188 123.375 L 106.039062 123.390625 L 106.03125 123.476562 C 106.019531 123.589844 106.046875 123.59375 106.699219 123.59375 C 107.316406 123.59375 110.035156 123.460938 110.398438 123.414062 L 110.496094 123.398438 L 110.511719 123.511719 C 110.546875 123.761719 110.535156 123.835938 110.460938 123.835938 C 110.425781 123.835938 110.054688 123.855469 109.636719 123.882812 C 109.21875 123.910156 108.484375 123.9375 108 123.945312 C 106.96875 123.957031 107.011719 123.953125 107.011719 124.058594 C 107.011719 124.167969 107.03125 124.171875 107.769531 124.171875 C 108.390625 124.167969 108.691406 124.15625 109.839844 124.074219 C 110.207031 124.046875 110.515625 124.027344 110.519531 124.03125 C 110.523438 124.039062 110.535156 124.140625 110.542969 124.261719 C 110.5625 124.523438 110.675781 124.484375 109.6875 124.554688 C 108.765625 124.617188 108.78125 124.613281 108.78125 124.722656 C 108.78125 124.835938 108.839844 124.835938 109.703125 124.757812 C 110.074219 124.726562 110.417969 124.699219 110.46875 124.699219 L 110.558594 124.699219 L 110.546875 125.136719 C 110.539062 125.375 110.515625 125.628906 110.5 125.695312 L 110.46875 125.8125 L 110.304688 125.8125 C 110.164062 125.8125 110.132812 125.820312 110.097656 125.867188 L 110.058594 125.917969 L 100.738281 125.945312 C 95.613281 125.960938 91.007812 125.976562 90.5 125.984375 L 89.578125 126 L 89.578125 126.195312 L 95.097656 126.179688 C 98.136719 126.167969 102.742188 126.15625 105.332031 126.144531 L 110.046875 126.128906 L 110.046875 126.371094 L 109.535156 126.386719 C 109.253906 126.394531 105.792969 126.453125 101.847656 126.511719 C 87.714844 126.722656 85.257812 126.761719 85.207031 126.773438 C 85.117188 126.792969 85.101562 126.929688 85.1875 126.964844 C 85.207031 126.972656 88.707031 126.921875 92.96875 126.859375 C 97.230469 126.792969 102.476562 126.710938 104.628906 126.679688 C 106.78125 126.648438 108.878906 126.613281 109.292969 126.605469 L 110.046875 126.589844 L 110.046875 127.3125 L 109.910156 127.3125 C 109.832031 127.3125 109.039062 127.335938 108.144531 127.359375 C 107.25 127.386719 104.710938 127.457031 102.496094 127.519531 C 97.96875 127.644531 98.363281 127.621094 98.371094 127.742188 C 98.382812 127.859375 97.832031 127.863281 104.15625 127.6875 C 107.214844 127.601562 109.792969 127.53125 109.882812 127.53125 L 110.046875 127.53125 L 110.046875 127.640625 C 110.046875 127.785156 110.027344 127.789062 109.71875 127.683594 C 109.351562 127.5625 109.230469 127.609375 109.265625 127.867188 C 109.277344 127.925781 109.289062 128.046875 109.296875 128.136719 L 109.3125 128.296875 L 109.203125 128.296875 C 109.144531 128.296875 108.03125 128.320312 106.726562 128.351562 C 104.238281 128.40625 104.292969 128.402344 104.292969 128.507812 C 104.292969 128.625 104.167969 128.621094 106.832031 128.558594 C 109.324219 128.503906 109.328125 128.503906 109.335938 128.550781 C 109.351562 128.625 109.421875 129.578125 109.414062 129.585938 C 109.398438 129.597656 85.21875 130.488281 85.207031 130.476562 C 85.179688 130.449219 84.957031 129.921875 84.96875 129.910156 C 84.972656 129.902344 88.199219 129.824219 92.136719 129.734375 C 100.140625 129.550781 99.457031 129.574219 99.445312 129.453125 L 99.441406 129.367188 L 99.296875 129.359375 C 99.214844 129.355469 95.9375 129.429688 92.011719 129.519531 C 88.085938 129.613281 84.863281 129.679688 84.855469 129.671875 C 84.847656 129.660156 84.808594 129.558594 84.765625 129.445312 L 84.695312 129.238281 L 84.914062 129.222656 C 85.035156 129.214844 87.628906 129.101562 90.675781 128.96875 C 97.273438 128.683594 96.699219 128.714844 96.714844 128.644531 C 96.757812 128.484375 96.792969 128.488281 95.621094 128.539062 C 93.667969 128.625 84.679688 129.019531 84.648438 129.019531 C 84.621094 129.019531 84.554688 128.820312 84.488281 128.546875 L 84.453125 128.398438 L 84.601562 128.382812 C 84.683594 128.378906 87.089844 128.324219 89.953125 128.261719 C 92.8125 128.203125 95.175781 128.148438 95.203125 128.140625 C 95.304688 128.121094 95.304688 127.972656 95.207031 127.949219 C 95.175781 127.941406 92.738281 127.988281 89.785156 128.054688 C 86.832031 128.121094 84.410156 128.171875 84.40625 128.167969 C 84.347656 128.109375 84.238281 126.75 84.265625 126.445312 C 84.289062 126.210938 84.082031 126.234375 86.207031 126.210938 C 88.4375 126.183594 88.871094 126.167969 88.890625 126.121094 C 88.910156 126.070312 88.886719 126 88.847656 125.984375 C 88.800781 125.96875 84.375 126.011719 84.328125 126.03125 C 84.296875 126.042969 84.289062 126.03125 84.296875 125.988281 C 84.300781 125.960938 84.320312 125.785156 84.34375 125.605469 L 84.382812 125.273438 L 84.496094 125.273438 C 84.585938 125.273438 96.414062 125.109375 96.4375 125.105469 C 96.457031 125.105469 96.4375 124.917969 96.410156 124.90625 C 96.394531 124.902344 93.828125 124.933594 90.710938 124.976562 C 83.726562 125.074219 84.421875 125.070312 84.4375 125.003906 C 84.492188 124.761719 84.605469 124.324219 84.644531 124.199219 L 84.695312 124.050781 L 85.097656 124.046875 C 85.316406 124.046875 89.097656 123.984375 93.5 123.910156 C 102.039062 123.765625 101.546875 123.78125 101.546875 123.667969 C 101.546875 123.554688 102.050781 123.550781 93.269531 123.699219 C 88.742188 123.777344 84.976562 123.835938 84.902344 123.828125 L 84.765625 123.820312 L 84.898438 123.511719 C 84.972656 123.339844 85.066406 123.113281 85.109375 123.011719 L 85.183594 122.828125 L 85.304688 122.824219 C 87.582031 122.78125 109.753906 122.398438 110.039062 122.398438 L 110.453125 122.394531 L 110.464844 122.628906 M 84.085938 122.976562 C 82.855469 125.054688 82.878906 128.265625 84.144531 130.3125 C 84.203125 130.414062 84.246094 130.5 84.238281 130.507812 C 84.210938 130.535156 82.328125 130.585938 82.308594 130.5625 C 82.296875 130.550781 82.238281 130.433594 82.179688 130.300781 C 81.667969 129.15625 81.398438 127.886719 81.375 126.453125 C 81.351562 125.261719 81.417969 124.785156 81.777344 123.4375 C 81.882812 123.058594 81.742188 123.019531 81.574219 123.378906 C 80.824219 125.003906 81.011719 128.558594 81.945312 130.410156 L 82.042969 130.601562 L 81.941406 130.601562 C 81.882812 130.601562 81.4375 130.617188 80.945312 130.636719 C 80.457031 130.65625 79.972656 130.671875 79.867188 130.671875 L 79.679688 130.675781 L 79.59375 130.488281 C 79.175781 129.578125 78.996094 128.480469 79.015625 126.953125 C 79.023438 126.332031 78.996094 126.234375 78.878906 126.480469 C 78.542969 127.199219 78.785156 129.449219 79.320312 130.503906 L 79.417969 130.699219 L 79.242188 130.699219 C 79.148438 130.699219 79.011719 130.707031 78.945312 130.714844 L 78.820312 130.726562 L 78.78125 130.636719 C 78.226562 129.324219 78.132812 127.90625 78.464844 125.863281 C 78.585938 125.109375 78.566406 124.878906 78.410156 125.234375 C 77.84375 126.550781 77.875 129.152344 78.472656 130.480469 C 78.585938 130.738281 78.585938 130.722656 78.464844 130.722656 C 78.363281 130.722656 78.359375 130.71875 78.382812 130.675781 C 78.433594 130.578125 78.40625 130.5 78.25 130.269531 C 77.773438 129.558594 77.371094 128.601562 77.203125 127.789062 C 76.90625 126.320312 77.21875 124.140625 77.882812 123.097656 L 77.976562 122.945312 L 78.234375 122.945312 C 78.375 122.941406 79.496094 122.921875 80.730469 122.898438 C 81.960938 122.875 83.238281 122.855469 83.566406 122.855469 L 84.160156 122.851562 L 84.085938 122.976562 M 77.339844 123.144531 C 76.695312 124.328125 76.457031 126.628906 76.820312 128.125 C 77.023438 128.96875 77.632812 130.230469 78.050781 130.675781 L 78.109375 130.742188 L 77.664062 130.753906 C 77.414062 130.765625 77.160156 130.773438 77.09375 130.777344 L 76.96875 130.785156 L 76.753906 130.460938 C 76.109375 129.492188 75.828125 128.554688 75.769531 127.144531 C 75.707031 125.707031 76.121094 123.601562 76.574219 123.0625 L 76.652344 122.972656 L 77.003906 122.964844 C 77.199219 122.960938 77.378906 122.953125 77.402344 122.953125 C 77.4375 122.945312 77.425781 122.980469 77.339844 123.144531 " fill-opacity="1" fill-rule="evenodd"/></g></svg>